<?xml version="1.0" encoding="UTF-8"?>
<svg version="1.1" xmlns="http://www.w3.org/2000/svg" width="625" height="625">
<path d="M0 0 C206.25 0 412.5 0 625 0 C625 206.25 625 412.5 625 625 C418.75 625 212.5 625 0 625 C0 418.75 0 212.5 0 0 Z " fill="#4494FF" transform="translate(0,0)"/>
<path d="M0 0 C1.22089041 -0.00551503 1.22089041 -0.00551503 2.46644527 -0.01114148 C5.19148854 -0.02214705 7.91649364 -0.02601683 10.64155579 -0.02983093 C12.59648763 -0.03609792 14.55141829 -0.04274493 16.50634766 -0.04974365 C22.92421137 -0.07075751 29.34207525 -0.08114316 35.75996399 -0.09111023 C37.97152532 -0.09515871 40.18308652 -0.09927566 42.3946476 -0.10346031 C52.78504287 -0.12250565 63.17543106 -0.13673839 73.56584042 -0.14507228 C85.55053106 -0.15484429 97.535037 -0.18116576 109.51966256 -0.22157317 C118.7894836 -0.25175249 128.05925173 -0.26654286 137.32912093 -0.26985329 C142.86269285 -0.27220157 148.39606729 -0.2811334 153.92958641 -0.30631447 C159.13760258 -0.32963203 164.34529174 -0.33381351 169.55334663 -0.32355309 C171.46004195 -0.32305852 173.36675358 -0.32935534 175.27339935 -0.34310913 C196.22687449 -0.48574857 196.22687449 -0.48574857 204.31074524 6.14717102 C205.08418274 7.13717102 205.08418274 7.13717102 205.87324524 8.14717102 C206.67762024 9.13717102 206.67762024 9.13717102 207.49824524 10.14717102 C210.65855835 14.74399009 211.16877149 17.85293726 211.18574524 23.52217102 C211.20250305 24.8086554 211.21926086 26.09513977 211.23652649 27.42060852 C210.66291708 33.30473086 208.02794194 37.99247432 203.87324524 42.14717102 C195.65649966 48.41434577 186.5200977 47.81308682 176.70029068 47.70819092 C173.79732341 47.67787288 170.89581733 47.67920875 167.99272156 47.68830872 C160.7854103 47.70450976 153.57856046 47.66732132 146.37135315 47.63172913 C140.2695686 47.60365325 134.16841016 47.5961933 128.06658554 47.61529541 C125.22580222 47.61590734 122.38635564 47.58687424 119.54576111 47.55647278 C105.62075707 47.51910206 94.14349188 49.97548721 83.87324524 60.14717102 C74.86683387 70.89166178 73.42355561 80.23703132 73.45332336 93.82783508 C73.44597524 95.41544184 73.43738685 97.00304326 73.42765808 98.59063721 C73.40550813 102.88633438 73.40250823 107.18183935 73.40440559 111.47758579 C73.40452563 115.07314323 73.39594769 118.66866045 73.38762808 122.26420665 C73.36841631 130.75370536 73.36550158 139.24310575 73.37226868 147.73262024 C73.37890331 156.46685844 73.35606334 165.20067368 73.31895494 173.93482614 C73.28817888 181.45360872 73.2769066 188.97225582 73.28079176 196.49110007 C73.28285163 200.9728621 73.27749909 205.45429509 73.25289917 209.93599701 C73.23050422 214.15515457 73.23261456 218.37362887 73.25282669 222.5927906 C73.25621469 224.13259229 73.25124399 225.67244112 73.23684311 227.21217918 C73.13081838 239.39876154 75.09566286 250.25549639 83.77558899 259.39326477 C91.77879899 266.08496177 99.36890921 268.29200173 109.5539093 268.30488586 C110.86687233 268.31250694 110.86687233 268.31250694 112.20635986 268.32028198 C114.10572055 268.33097385 116.00509375 268.33959866 117.90447235 268.34640121 C120.91469859 268.35820984 123.92478264 268.3776686 126.93495178 268.39952087 C135.49327334 268.4610655 144.0515803 268.51513501 152.61006165 268.54853821 C157.8473168 268.5695279 163.08431233 268.60486652 168.32141876 268.64929581 C170.31319363 268.66342253 172.30501443 268.6721707 174.29683685 268.67535019 C177.08983365 268.68027993 179.88214621 268.70349134 182.67500305 268.73066711 C183.49087387 268.72766098 184.30674469 268.72465485 185.14733887 268.72155762 C192.3553165 268.82527732 198.69170961 270.51162651 204.18574524 275.45967102 C204.82125305 276.01267883 205.45676086 276.56568665 206.11152649 277.13545227 C211.3295645 283.09396574 211.45158343 288.89012758 211.28730774 296.50654602 C210.54323846 303.04874006 207.61774468 306.76559136 202.81074524 311.02217102 C199.05491908 313.73915165 196.41740563 315.39462691 191.73905945 315.40545654 C190.92342529 315.41228455 190.10779114 315.41911255 189.2674408 315.42614746 C188.38115997 315.42359451 187.49487915 315.42104156 186.58174133 315.41841125 C185.17118469 315.42625137 185.17118469 315.42625137 183.73213196 315.43424988 C181.69036401 315.44448855 179.64856997 315.45027005 177.60677719 315.45213127 C174.36911117 315.45579598 171.13175119 315.472528 167.89414978 315.4928894 C158.68883473 315.5482761 149.48347377 315.57891338 140.2780304 315.60346985 C134.64527801 315.61940098 129.01274078 315.64968371 123.38010025 315.68823433 C121.23925192 315.69984125 119.09836499 315.7058143 116.9574852 315.70591545 C113.9518026 315.70610887 110.94670711 315.72447658 107.94111633 315.74653625 C107.0669809 315.74195908 106.19284546 315.7373819 105.29222107 315.73266602 C96.05687995 315.83968739 87.95632713 318.04321834 80.85762024 324.08467102 C75.42690101 329.72919809 73.58075805 335.37586486 73.31074524 343.14717102 C73.68932007 352.32262932 76.11537822 359.03924425 82.60371399 365.57685852 C89.42905293 370.2993822 95.71974453 371.73279082 103.91596985 371.61372375 C105.3568824 371.61718307 105.3568824 371.61718307 106.8269043 371.62071228 C108.89752862 371.62332791 110.96818027 371.61696904 113.03875542 371.60246086 C116.32319435 371.58044568 119.60671882 371.58433332 122.89120483 371.59494019 C131.04587916 371.61653384 139.2003464 371.59927973 147.35499573 371.57344055 C154.2557699 371.55198552 161.1559542 371.55016386 168.05671883 371.57635689 C171.27971583 371.58068636 174.50166891 371.55613381 177.72454834 371.53082275 C179.71674555 371.53609722 181.70893962 371.54282217 183.7011261 371.55122375 C184.58610779 371.53631393 185.47108948 371.52140411 186.38288879 371.50604248 C193.10739199 371.58195333 198.20600208 373.53705349 203.87324524 377.14717102 C206.12715149 379.53388977 206.12715149 379.53388977 207.43574524 381.83467102 C207.8907843 382.60166321 208.34582336 383.3686554 208.81465149 384.15888977 C210.92985489 388.13172568 211.06947429 390.8266405 211.12324524 395.39717102 C211.14902649 396.70170227 211.17480774 398.00623352 211.20137024 399.35029602 C210.63694361 405.88151844 207.81092184 409.97757745 202.87324524 414.14717102 C197.3241138 417.66386447 192.66677784 418.73038176 186.16467285 418.65510559 C184.90424391 418.66446553 184.90424391 418.66446553 183.61835176 418.67401457 C180.82175874 418.6898827 178.02604485 418.67736462 175.22944641 418.66474915 C173.21657811 418.67017313 171.20371378 418.67729735 169.19085693 418.68598938 C163.73612123 418.70419612 158.2816888 418.6971651 152.82694793 418.68447304 C147.10924334 418.67432752 141.39156427 418.68374342 135.67385864 418.6900177 C126.06961928 418.69729134 116.46550301 418.68771563 106.86128235 418.6686554 C95.77428305 418.64690587 84.68757823 418.65392532 73.60058612 418.67596102 C64.06824679 418.69414525 54.53599584 418.69665799 45.00364476 418.68620634 C39.31641876 418.67998565 33.62933088 418.67909618 27.94211388 418.69235229 C22.59119665 418.70395347 17.24065675 418.69580714 11.88978004 418.67277527 C9.93191782 418.66751014 7.97402356 418.66896407 6.01617432 418.67782593 C-9.09024088 418.73986917 -20.82915959 417.3304515 -32.03300476 406.26435852 C-40.22545126 397.41235065 -43.43724779 387.93858721 -43.40141296 376.01826477 C-43.4065239 375.13115814 -43.41163483 374.24405151 -43.41690063 373.33006287 C-43.43073407 370.41486251 -43.42984485 367.49990018 -43.42753601 364.58467102 C-43.43142581 362.54878146 -43.43576106 360.51289271 -43.44052124 358.477005 C-43.44796959 354.21696843 -43.44770179 349.95701476 -43.44242859 345.69697571 C-43.43662978 340.24629763 -43.45358174 334.79595889 -43.47677326 329.34533691 C-43.49152452 325.14336677 -43.4923805 320.94147815 -43.48926353 316.73948669 C-43.48977584 314.73010078 -43.49499659 312.72071019 -43.50507545 310.71134949 C-43.51745218 307.89936919 -43.51064117 305.08804752 -43.49906921 302.27607727 C-43.51053482 301.03992172 -43.51053482 301.03992172 -43.52223206 299.77879333 C-43.45811318 292.70712087 -41.61738702 286.97955186 -36.75956726 281.56904602 C-31.29272973 276.80845065 -24.89756092 274.23712285 -17.64237976 274.67060852 C-9.99288477 276.11973645 -4.68059969 279.74395275 -0.28300476 286.08467102 C2.40226821 290.8746174 3.12298861 294.62899628 3.12861633 300.13716125 C3.13223679 300.82075714 3.13585724 301.50435303 3.1395874 302.20866394 C3.14645624 303.68620918 3.14899157 305.16377966 3.14764023 306.64134026 C3.14667135 308.98330587 3.15965918 311.3248171 3.17662048 313.66671753 C3.22278622 320.32268283 3.24749748 326.97859983 3.25410461 333.63471985 C3.25912758 337.71258538 3.28341377 341.7899739 3.3194313 345.86767769 C3.32920832 347.41732478 3.33157269 348.96703764 3.32625961 350.51670647 C3.31916465 352.68758298 3.33651737 354.85704346 3.35908508 357.02778625 C3.36193512 358.26068893 3.36478516 359.49359161 3.36772156 360.76385498 C3.97102518 364.80158239 5.32815016 366.99083605 7.87324524 370.14717102 C11.73836849 371.69598606 15.73210137 371.39524577 19.74824524 370.52217102 C22.48544066 368.75104457 23.40748592 367.04915054 24.87324524 364.14717102 C25.31893656 361.51422867 25.31893656 361.51422867 25.25635529 358.70451355 C25.26994025 357.07442698 25.26994025 357.07442698 25.28379965 355.41140938 C25.27847172 354.22319021 25.2731438 353.03497105 25.26765442 351.81074524 C25.27374552 350.54409971 25.27983663 349.27745419 25.28611231 347.97242546 C25.30252263 344.45882099 25.30019177 340.94544074 25.29473734 337.43181133 C25.29206852 333.6416924 25.30659602 329.85163342 25.3188324 326.0615387 C25.33989378 318.63761751 25.34442689 311.2137744 25.34264451 303.78982687 C25.34133742 297.75689335 25.3451383 291.72398422 25.35256958 285.6910553 C25.35466874 283.95399157 25.35676634 282.21692785 25.3588624 280.47986412 C25.36042769 279.18304337 25.36042769 279.18304337 25.36202461 277.86002421 C25.3809293 261.50717669 25.37987587 245.15437403 25.37305528 228.80152011 C25.36747768 213.83513671 25.38831406 198.86892438 25.42141575 183.90258098 C25.45513082 168.53986519 25.47032394 153.17723141 25.46569872 137.81447792 C25.46345207 129.18749906 25.46872592 120.56067838 25.49359131 111.93373108 C25.51457611 104.59056794 25.51822449 97.24764974 25.49929172 89.90447664 C25.49011687 86.15691528 25.48904359 82.40981095 25.50964737 78.66228485 C25.53172221 74.60236388 25.51518304 70.54352574 25.4947052 66.4835968 C25.50722305 65.29537764 25.5197409 64.10715847 25.53263807 62.88293266 C25.64802896 56.33961439 25.64802896 56.33961439 22.45940399 50.93864441 C18.32118544 48.07203446 15.9508401 47.8029273 10.87324524 48.14717102 C8.10512833 49.3774452 6.43604278 50.30250389 4.75149536 52.83073425 C3.5665189 55.95617992 3.62893829 58.61822104 3.63374329 61.9601593 C3.63172913 62.63718399 3.62971497 63.31420868 3.62763977 64.01174927 C3.62410081 65.47894508 3.6248533 66.94615616 3.62941551 68.41334915 C3.63502721 70.74373553 3.62581798 73.07362748 3.61221313 75.40397644 C3.57517678 82.02868268 3.55649117 88.65322343 3.56782532 95.2780304 C3.57371356 99.33537488 3.55523324 103.39202691 3.52193642 107.44923019 C3.51403626 108.98720742 3.51518559 110.52526121 3.52596092 112.06322098 C3.58536664 120.92879334 3.35265097 128.76251941 -2.12675476 136.14717102 C-7.72501164 141.60315979 -13.16941989 143.69305063 -20.93925476 144.58467102 C-27.03024066 144.39543651 -32.52260741 141.45125201 -37.02519226 137.46748352 C-42.63563198 131.30968382 -43.42676346 125.08631745 -43.43315125 117.02754211 C-43.44147476 116.12910583 -43.44979828 115.23066956 -43.45837402 114.30500793 C-43.48240872 111.34349692 -43.49123968 108.38220665 -43.49784851 105.42060852 C-43.50682219 103.35042763 -43.51594417 101.28024737 -43.52520752 99.21006775 C-43.54168405 94.87088957 -43.54939479 90.5317884 -43.55229187 86.19258118 C-43.55766377 80.65811019 -43.59530068 75.12437318 -43.64103603 69.59010887 C-43.67092475 65.3124382 -43.67801805 61.03494142 -43.67901802 56.75717545 C-43.68319951 54.71840186 -43.69554962 52.67962675 -43.71653557 50.64095688 C-43.86289432 35.18885806 -42.76243419 23.96781601 -31.52519226 12.33857727 C-22.16944452 3.79041036 -12.62777612 -0.00307621 0 0 Z " fill="#FDFEFF" transform="translate(228.1267547607422,102.85282897949219)"/>
<path d="M0 0 C4.93079252 2.72123927 7.91773794 6.1870682 10.75 11 C11.12253906 11.62519531 11.49507812 12.25039063 11.87890625 12.89453125 C14.05225046 18.14759192 13.51609734 24.44871768 11.91015625 29.796875 C8.56528612 37.22991973 3.77919545 41.41710179 -3.75 44.375 C-12.45862536 45.93011167 -17.81420674 44.87172662 -25.25 40 C-29.9305172 35.94355176 -32.8703316 30.52103436 -33.53515625 24.35546875 C-33.77991096 16.57652564 -32.22830716 10.37553971 -26.8828125 4.421875 C-18.87413798 -2.55218607 -9.6852323 -4.26266212 0 0 Z " fill="#FCFDFF" transform="translate(218.25,291)"/>
</svg>
